PathFileType	4	(X/Y/Z)	C:\Users\Basilio\Documents\Thesis Gigler\squatting_fais\c3dfiles\041\SLS_pre_front1\markers_experimental.trc
DataRate	CameraRate	NumFrames	NumMarkers	Units	OrigDataRate	OrigDataStartFrame	OrigNumFrames
200.000000	200.000000	4	62	mm	200.000000	1327	1517
Frame#	Time	FHD			LBHD			RBHD			C7			T10			CLAV			LSHO			LUUPA			LMUPA			LDUPA			LLEP			LMEP			LRAD			LUL			LRFIN			RSHO			RUPA1			RMUPA			RDUPA			RLEP			RMEP			RRAD			RUL			RUFIN			LASI			RASI			USACR			LSACR			RSACR			LTHI1			LTHI2			LTHI3			LTHI4			LLFC			LMFC			LTIB1			LTIB2			LTIB3			LTIB4			LLMAL			LMMAL			LHEE			LMT1			LMT2			LMT5			RTHI			RTHI2			RTHI3			RTHI4			RLFC			RMFC			RTIB1			RTIB2			RTIB3			RTIB4			RLMAL			RMMAL			RHEE			RMT1			RMT2			RMT5			*61			
		X1	Y1	Z1	X2	Y2	Z2	X3	Y3	Z3	X4	Y4	Z4	X5	Y5	Z5	X6	Y6	Z6	X7	Y7	Z7	X8	Y8	Z8	X9	Y9	Z9	X10	Y10	Z10	X11	Y11	Z11	X12	Y12	Z12	X13	Y13	Z13	X14	Y14	Z14	X15	Y15	Z15	X16	Y16	Z16	X17	Y17	Z17	X18	Y18	Z18	X19	Y19	Z19	X20	Y20	Z20	X21	Y21	Z21	X22	Y22	Z22	X23	Y23	Z23	X24	Y24	Z24	X25	Y25	Z25	X26	Y26	Z26	X27	Y27	Z27	X28	Y28	Z28	X29	Y29	Z29	X30	Y30	Z30	X31	Y31	Z31	X32	Y32	Z32	X33	Y33	Z33	X34	Y34	Z34	X35	Y35	Z35	X36	Y36	Z36	X37	Y37	Z37	X38	Y38	Z38	X39	Y39	Z39	X40	Y40	Z40	X41	Y41	Z41	X42	Y42	Z42	X43	Y43	Z43	X44	Y44	Z44	X45	Y45	Z45	X46	Y46	Z46	X47	Y47	Z47	X48	Y48	Z48	X49	Y49	Z49	X50	Y50	Z50	X51	Y51	Z51	X52	Y52	Z52	X53	Y53	Z53	X54	Y54	Z54	X55	Y55	Z55	X56	Y56	Z56	X57	Y57	Z57	X58	Y58	Z58	X59	Y59	Z59	X60	Y60	Z60	X61	Y61	Z61	X62	Y62	Z62	

1328	6.635	-181.90234375	1791.058349609375	-1000.860168457031	-346.6651916503907	1710.910766601563	-1088.890502929688	-334.9830627441407	1708.4267578125	-936.3358154296877	-376.3371276855469	1571.340698242188	-1028.499389648438	-411.2520446777345	1253.389892578125	-1010.10595703125	-216.4054260253907	1504.805053710938	-1026.580932617188	-303.4561767578126	1554.911010742188	-1201.528686523438	-385.8331909179689	1371.196166992188	-1277.159790039063	-360.3756103515626	1330.593505859375	-1267.179443359375	-415.1024780273439	1308.23486328125	-1284.630004882813	-434.569061279297	1265.335327148438	-1281.541015625	-449.703826904297	1241.873779296875	-1198.375244140625	-457.5460205078126	986.3201293945315	-1263.603149414063	-503.0687255859376	1015.431518554688	-1317.205322265625	-482.0773925781251	910.665222167969	-1278.29541015625	-292.7251892089844	1562.025146484375	-856.7549438476565	-408.1428222656251	1383.899169921875	-758.8338012695314	-364.8611450195313	1358.302856445313	-751.4067382812501	-405.3729553222657	1316.0498046875	-738.2051391601564	-412.8161621093751	1274.425415039063	-731.1096801757814	-435.7745971679689	1251.044189453125	-815.3027343750002	-425.5267028808595	1006.642761230469	-729.2258911132814	-477.8765258789064	1034.732055664063	-680.5693969726564	-444.5226440429689	928.7233886718752	-710.8941650390626	-240.6716613769532	1057.508422851563	-1106.294799804688	-255.5979156494141	1060.215576171875	-879.7559204101565	-422.3215942382814	1139.623291015625	-1006.160705566406	-436.4379272460939	1113.514770507813	-1033.266967773438	-443.4816284179689	1114.752807617188	-979.707702636719	-354.4539489746094	852.7969970703127	-1172.637329101563	-321.8258056640626	774.8255004882815	-1163.576904296875	-274.5105895996094	777.7836914062502	-1153.186889648438	-350.4586486816407	722.6038208007814	-1154.634643554688	-338.4549560546876	541.6627197265626	-1131.666870117188	-342.6883850097657	527.5053710937501	-1011.796691894531	-314.5015563964844	352.0899353027344	-1067.201171875	-358.1455688476563	307.3140869140626	-1130.706298828125	-320.7716674804688	303.7098083496094	-1102.808715820313	-327.2792358398438	227.5361633300782	-1068.128784179688	-384.119598388672	132.3949737548828	-1106.140380859375	-348.0602416992188	138.2505645751953	-1024.3408203125	-449.7637634277345	117.9931411743164	-1063.02734375	-242.7309265136719	63.23727035522462	-1039.2802734375	-236.4485473632813	59.05433273315431	-1084.83349609375	-285.3963928222657	44.28716659545899	-1137.082885742188	-367.0695190429688	802.8901977539065	-799.2799072265627	-326.7474060058594	750.8508300781251	-792.4022216796877	-293.7493591308594	753.7348632812501	-796.333679199219	-349.1945800781251	669.5955810546876	-805.3745727539065	-337.9808959960938	545.5949096679689	-796.9214477539065	-317.0118408203126	518.9716796875001	-912.7062988281252	-308.0257568359376	377.3661804199219	-792.3957519531252	-393.0047302246095	305.7433166503907	-773.189392089844	-346.2484741210938	301.2590026855469	-772.3980712890627	-325.0897216796876	250.3469848632813	-796.516296386719	-384.3259277343751	136.5595397949219	-775.0903320312502	-354.8978881835938	148.16748046875	-854.1382446289065	-446.0059814453126	114.4778518676758	-823.165710449219	-239.636459350586	59.75909423828126	-842.861755371094	-232.2130889892579	59.52077865600587	-790.7175903320315	-277.4274902343751	48.7309036254883	-740.6644897460939	-4216.875976562501	853.0983886718752	-3944.747802734376	
1329	6.640000000000001	-182.0199584960938	1791.102661132813	-999.8706665039065	-346.6691894531251	1710.97216796875	-1087.764282226563	-335.1793212890626	1708.335205078125	-935.253845214844	-376.6005554199219	1571.359375	-1027.713989257813	-411.4278869628907	1253.34716796875	-1009.338745117188	-216.1675872802735	1504.735229492188	-1025.66796875	-303.4092102050782	1554.839477539063	-1200.59033203125	-383.8692932128907	1370.60302734375	-1276.839233398438	-358.2462463378907	1330.164794921875	-1266.415649414063	-412.5256347656251	1307.397705078125	-1284.689208984375	-431.8021850585939	1264.2880859375	-1281.9228515625	-447.2368469238282	1240.648559570313	-1198.86572265625	-451.2375488281251	985.084167480469	-1264.762451171875	-496.9998474121095	1013.745849609375	-1318.336181640625	-473.792449951172	909.2488403320315	-1280.372924804688	-293.1213684082032	1561.725219726563	-855.8242797851565	-406.3171386718751	1382.43505859375	-757.3984985351564	-363.0678710937501	1357.188232421875	-750.3143920898439	-403.1297912597657	1314.874755859375	-736.7173461914064	-410.1214904785157	1273.02197265625	-729.7269287109376	-433.1186523437501	1249.4560546875	-813.8255615234377	-419.137176513672	1005.260070800781	-727.9259643554689	-471.5545654296876	1032.474243164063	-679.1621093750001	-435.7156677246095	927.058288574219	-708.3961791992189	-240.9964294433594	1057.623413085938	-1105.6796875	-255.8693389892579	1060.079467773438	-878.8164672851565	-422.5426635742189	1139.388671875	-1005.145812988281	-436.9466857910157	1113.620971679688	-1032.307495117188	-443.6722412109376	1114.6201171875	-978.722106933594	-355.1358642578126	852.1372680664065	-1172.079833984375	-322.2035827636719	774.8621215820315	-1163.039794921875	-274.3907470703126	777.7935180664065	-1153.029907226563	-350.7919616699219	722.6500244140626	-1154.323120117188	-338.9359436035157	541.7529296875001	-1131.3173828125	-342.9059143066407	527.4183959960939	-1011.492553710938	-314.8271789550782	351.9855041503907	-1066.98779296875	-358.5393066406251	307.3930358886719	-1130.5263671875	-321.0089721679688	303.8056945800782	-1102.65966796875	-327.3374938964844	227.5910797119141	-1068.019653320313	-384.1398925781251	132.4063568115235	-1106.124145507813	-348.0782470703126	138.2522125244141	-1024.341430664063	-449.8004150390626	117.9991302490235	-1063.023071289063	-242.7579040527344	63.246883392334	-1039.28369140625	-236.4176483154297	59.05601501464845	-1084.856689453125	-285.5296325683594	43.99108123779298	-1136.630737304688	-367.0734558105469	802.8000488281252	-798.7100830078127	-326.5834045410157	750.7905883789064	-791.940856933594	-293.6060485839844	753.7196044921876	-795.7780761718752	-349.1726379394532	669.5969848632814	-804.8286743164065	-337.9143371582032	545.5142822265626	-796.547790527344	-316.8599243164063	518.9207153320314	-912.280944824219	-308.0598144531251	377.3300170898438	-792.1265258789065	-392.9492797851564	305.6188049316407	-773.133972167969	-346.2040710449219	301.0398559570313	-772.293884277344	-325.0743408203126	250.2636718750001	-796.4131469726565	-384.3790893554689	136.4635772705078	-775.079528808594	-354.8866577148438	148.0873413085938	-854.0393066406252	-445.9213256835939	114.4303207397461	-823.1521606445315	-239.5720214843751	59.72522735595705	-842.828796386719	-232.2446899414063	59.43797302246095	-790.6970214843752	-277.4546813964844	48.69554901123048	-740.6237182617189	-4217.605957031251	853.273620605469	-3944.717529296876	
1330	6.645	-182.2986602783203	1790.970947265625	-998.3328247070315	-346.8417663574219	1711.06201171875	-1086.667846679688	-335.6404724121094	1708.322021484375	-934.0332641601565	-376.9265747070313	1571.381469726563	-1026.71923828125	-411.715789794922	1253.306274414063	-1008.353332519531	-216.3586883544922	1504.751708984375	-1024.47705078125	-303.2992858886719	1554.840454101563	-1199.581787109375	-381.8320007324219	1370.0810546875	-1276.443481445313	-356.1013183593751	1329.831665039063	-1266.069091796875	-410.3942871093751	1306.802612304688	-1284.773193359375	-428.9374084472657	1263.33203125	-1282.3427734375	-444.7421264648439	1239.208129882813	-1199.406372070313	-445.2558898925782	983.9683837890627	-1265.808837890625	-490.8440246582032	1012.016967773438	-1319.486938476563	-465.0005798339845	907.806335449219	-1282.876220703125	-293.3690490722657	1561.431762695313	-855.023864746094	-404.7633361816407	1381.2451171875	-756.0969238281251	-361.0788269042969	1356.11376953125	-749.6173706054689	-400.5447387695314	1313.533813476563	-735.5881958007814	-407.3863830566407	1271.75537109375	-728.4195556640626	-430.423065185547	1247.65087890625	-812.346374511719	-412.3739013671876	1003.557189941406	-726.6485595703126	-465.227264404297	1030.250854492188	-677.7659301757814	-426.5349731445314	925.6939086914065	-705.8756103515626	-241.2151947021485	1057.808471679688	-1105.122192382813	-255.8694763183594	1060.112426757813	-878.2410278320315	-422.6284484863282	1139.23388671875	-1004.186401367188	-437.5897216796876	1113.6005859375	-1031.429077148438	-444.3829345703126	1114.571899414063	-977.794128417969	-355.3601684570313	852.591735839844	-1171.369995117188	-322.5514526367188	774.984558105469	-1162.50927734375	-275.0554504394532	777.872497558594	-1152.1806640625	-351.1941833496094	722.7556152343751	-1153.640869140625	-339.5983886718751	542.0599365234376	-1131.12548828125	-343.0446472167969	527.3797607421876	-1011.251892089844	-315.0173950195313	351.9696960449219	-1066.823364257813	-358.8786010742188	307.4078674316407	-1130.405883789063	-321.1298217773438	303.8641052246094	-1102.581420898438	-327.3581542968751	227.6337432861329	-1067.857055664063	-384.1870117187501	132.4564514160157	-1106.066040039063	-348.0644531250001	138.253890991211	-1024.322998046875	-449.742156982422	117.9212722778321	-1062.968872070313	-242.7020263671876	63.26758956909181	-1039.304809570313	-236.4399108886719	59.06898880004884	-1084.812866210938	-285.4039916992188	44.33260345458985	-1137.10400390625	-366.9237365722657	802.7522583007815	-798.0571289062502	-326.4032287597657	750.6307983398439	-791.5137329101565	-293.5751037597657	753.6535644531251	-795.1751708984377	-349.2635498046876	669.4433593750001	-804.4004516601565	-337.8963012695313	545.4334106445314	-796.225524902344	-316.7417602539063	518.9699707031251	-911.934020996094	-308.0508728027344	377.2704162597657	-791.869812011719	-392.9437561035157	305.4798583984376	-772.9515380859377	-346.2455139160157	300.8565063476563	-772.1488037109377	-325.0456542968751	250.1352233886719	-796.1740722656252	-384.3923339843751	136.3660736083985	-775.027038574219	-354.8801574707032	148.0457458496094	-853.990661621094	-445.9403381347657	114.4414215087891	-823.1685180664065	-239.5558013916016	59.66533279418947	-842.8742675781252	-232.3270721435547	59.38429641723634	-790.661804199219	-277.4511413574219	48.62474822998048	-740.5895385742189	-4216.910644531251	853.1248779296877	-3944.573974609376	
1331	6.65	-182.4729919433594	1790.94189453125	-997.2066040039065	-347.1890563964844	1711.202270507813	-1085.52685546875	-335.9829406738282	1708.321166992188	-932.9622802734377	-377.2042846679688	1571.3779296875	-1025.722045898438	-412.0101623535157	1253.313842773438	-1007.468444824219	-216.8741760253907	1504.900512695313	-1023.4521484375	-303.4711608886719	1554.801879882813	-1198.500854492188	-380.0225524902344	1369.5078125	-1276.104736328125	-354.1737060546876	1329.295654296875	-1264.520629882813	-407.7109680175782	1306.0419921875	-1284.934692382813	-426.1335449218751	1262.452026367188	-1282.747314453125	-442.1183471679689	1237.9765625	-1199.9580078125	-437.8977355957032	983.5775146484377	-1267.4521484375	-484.2935180664064	1010.243225097656	-1320.701416015625	-455.7675170898439	906.4246826171877	-1285.299438476563	-293.6615905761719	1561.245483398438	-854.257263183594	-402.9010620117189	1379.848266601563	-754.7676391601564	-359.0090637207032	1355.401123046875	-748.4875488281251	-398.0922851562501	1312.324951171875	-734.3557739257814	-405.0438537597657	1270.542724609375	-726.9532470703126	-427.801239013672	1245.999267578125	-810.9508056640627	-405.6326599121095	1002.2001953125	-725.1825561523439	-458.7815551757814	1028.205200195313	-676.2006225585939	-416.911590576172	924.581726074219	-703.3107299804689	-241.5085449218751	1057.897216796875	-1104.466796875	-255.6991882324219	1060.2275390625	-877.8018188476565	-423.1526184082032	1139.294799804688	-1003.310729980469	-438.0152282714845	1113.554077148438	-1030.35791015625	-444.5504150390626	1114.504760742188	-976.7681274414065	-355.8989868164063	852.6367797851565	-1170.61181640625	-322.9356384277344	775.070251464844	-1161.874145507813	-275.4344787597657	777.9666137695315	-1151.60986328125	-351.5850219726563	722.7601318359376	-1153.075317382813	-340.0727233886719	542.2441406250001	-1130.793212890625	-343.3641357421876	527.3099365234376	-1010.846435546875	-315.2216491699219	352.0187988281251	-1066.654418945313	-359.1729125976563	307.4963378906251	-1130.311157226563	-321.3325805664063	304.0431823730469	-1102.460327148438	-327.3968505859376	227.7184295654297	-1067.82470703125	-384.2084960937501	132.4817504882813	-1106.059448242188	-348.0685119628907	138.2411346435547	-1024.317993164063	-449.8194580078126	118.0196838378907	-1062.998046875	-242.6793823242188	63.28445434570314	-1039.303588867188	-236.4820556640626	59.10206222534181	-1084.822143554688	-285.4014282226563	44.3400993347168	-1137.080688476563	-366.9832763671876	802.6060791015627	-797.2627563476565	-326.4036560058594	750.3419189453126	-790.9214477539065	-293.5543518066407	753.4052734375001	-794.5274047851565	-349.3089904785157	669.4204711914064	-803.888854980469	-337.8821105957032	545.3602905273439	-795.8188476562502	-316.7246704101563	519.0017700195314	-911.4387817382815	-308.0497741699219	377.1128540039063	-791.593933105469	-392.9270019531251	305.3370361328126	-772.8255004882815	-346.2371826171876	300.7701416015626	-771.832702636719	-325.0117797851563	250.0638885498047	-796.0781860351565	-384.4022827148439	136.2974853515625	-774.963562011719	-354.8333129882813	147.9610748291016	-853.9385375976565	-445.9252319335939	114.39404296875	-823.1668701171877	-239.4216613769532	59.74361419677736	-843.2124633789065	-232.4070739746094	59.26122665405275	-790.5744628906252	-277.5163879394532	48.60217666625978	-740.5490112304689	-4216.947265625001	853.173767089844	-3944.820312500001	
